<svg xmlns:xlink="http://www.w3.org/1999/xlink" xmlns="http://www.w3.org/2000/svg" version="1.1" viewBox="0 0 120 120" height="120" width="120"><defs><path id="a" d="M0 0h120v120H0z"/><linearGradient id="c" y2="1096.905%" x2="-19968.882%" y1="1096.905%" x1="-20022.964%"><stop offset="0%" stop-color="#E9E9E9"/><stop offset="66%" stop-color="#D4D4D4"/><stop offset="100%" stop-color="#D4D4D4"/></linearGradient><linearGradient id="d" y2="2.19%" x2="49.812%" y1="97.67%" x1="50.043%"><stop offset="0%" stop-opacity="0" stop-color="#FFF"/><stop offset="13%" stop-opacity=".21" stop-color="#F7F7F9"/><stop offset="27%" stop-opacity=".39" stop-color="#F0F1F3"/><stop offset="41%" stop-opacity=".54" stop-color="#EAEBEE"/><stop offset="55%" stop-opacity=".65" stop-color="#E5E7EB"/><stop offset="69%" stop-opacity=".73" stop-color="#E2E3E8"/><stop offset="84%" stop-opacity=".78" stop-color="#E0E2E7"/><stop offset="100%" stop-opacity=".8" stop-color="#DFE1E6"/></linearGradient><linearGradient id="e" y2="1.204%" x2="49.81%" y1="99.69%" x1="50.047%"><stop offset="0%" stop-opacity="0" stop-color="#FFF"/><stop offset="13%" stop-opacity=".21" stop-color="#F7F7F9"/><stop offset="27%" stop-opacity=".39" stop-color="#F0F1F3"/><stop offset="41%" stop-opacity=".54" stop-color="#EAEBEE"/><stop offset="55%" stop-opacity=".65" stop-color="#E5E7EB"/><stop offset="69%" stop-opacity=".73" stop-color="#E2E3E8"/><stop offset="84%" stop-opacity=".78" stop-color="#E0E2E7"/><stop offset="100%" stop-opacity=".8" stop-color="#DFE1E6"/></linearGradient><linearGradient id="f" y2="2.087%" x2="49.559%" y1="98.266%" x1="50.125%"><stop offset="0%" stop-opacity="0" stop-color="#FFF"/><stop offset="13%" stop-opacity=".21" stop-color="#F7F7F9"/><stop offset="27%" stop-opacity=".39" stop-color="#F0F1F3"/><stop offset="41%" stop-opacity=".54" stop-color="#EAEBEE"/><stop offset="55%" stop-opacity=".65" stop-color="#E5E7EB"/><stop offset="69%" stop-opacity=".73" stop-color="#E2E3E8"/><stop offset="84%" stop-opacity=".78" stop-color="#E0E2E7"/><stop offset="100%" stop-opacity=".8" stop-color="#DFE1E6"/></linearGradient><linearGradient id="g" y2="6.527%" x2="40.104%" y1="-26.479%" x1="27.108%"><stop offset="0%" stop-color="#CCC"/><stop offset="15%" stop-opacity=".79" stop-color="#D7D7D7"/><stop offset="37%" stop-opacity=".51" stop-color="#E5E5E5"/><stop offset="57%" stop-opacity=".29" stop-color="#F0F0F0"/><stop offset="75%" stop-opacity=".13" stop-color="#F8F8F8"/><stop offset="90%" stop-opacity=".03" stop-color="#FDFDFD"/><stop offset="100%" stop-opacity="0" stop-color="#FFF"/></linearGradient><linearGradient id="h" y2="0%" x2="50%" y1="100.167%" x1="50%"><stop offset="0%" stop-opacity=".25" stop-color="#6D6D6D"/><stop offset="54%" stop-opacity=".12" stop-color="#6D6D6D"/><stop offset="100%" stop-opacity=".1" stop-color="#6D6D6D"/></linearGradient><linearGradient id="i" y2="0%" x2="50%" y1="100.021%" x1="50%"><stop offset="0%" stop-opacity=".25" stop-color="#6D6D6D"/><stop offset="54%" stop-opacity=".12" stop-color="#6D6D6D"/><stop offset="100%" stop-opacity=".1" stop-color="#6D6D6D"/></linearGradient><linearGradient id="j" y2="50%" x2="100%" y1="50%" x1="0%"><stop offset="27%" stop-color="#DFE1E6"/><stop offset="89%" stop-color="#C4C6CC"/><stop offset="100%" stop-color="#B5B7BA"/></linearGradient><linearGradient id="k" y2="22.583%" x2="63.037%" y1="86.792%" x1="48.722%"><stop offset="27%" stop-color="#DFE1E6"/><stop offset="89%" stop-color="#C4C6CC"/><stop offset="100%" stop-color="#B5B7BA"/></linearGradient><linearGradient id="l" y2="19.655%" x2="42.637%" y1="80.148%" x1="57.288%"><stop offset="27%" stop-color="#DFE1E6"/><stop offset="89%" stop-color="#C4C6CC"/><stop offset="100%" stop-color="#B5B7BA"/></linearGradient><linearGradient id="m" y2="50.013%" x2="100%" y1="50.013%" x1="-.137%"><stop offset="27%" stop-color="#DFE1E6"/><stop offset="89%" stop-color="#C4C6CC"/><stop offset="100%" stop-color="#B5B7BA"/></linearGradient><linearGradient id="n" y2="54.321%" x2="49.86%" y1="45.781%" x1="50.248%"><stop offset="27%" stop-color="#DFE1E6"/><stop offset="89%" stop-color="#C4C6CC"/><stop offset="100%" stop-color="#B5B7BA"/></linearGradient><linearGradient id="o" y2="57.695%" x2="59.941%" y1="42.377%" x1="40.694%"><stop offset="27%" stop-color="#DFE1E6"/><stop offset="89%" stop-color="#C4C6CC"/><stop offset="100%" stop-color="#B5B7BA"/></linearGradient><linearGradient id="p" y2="49.987%" x2="99.863%" y1="49.987%" x1="-.137%"><stop offset="27%" stop-color="#DFE1E6"/><stop offset="89%" stop-color="#C4C6CC"/><stop offset="100%" stop-color="#B5B7BA"/></linearGradient><linearGradient id="q" y2="54.3%" x2="49.766%" y1="45.794%" x1="50.153%"><stop offset="27%" stop-color="#DFE1E6"/><stop offset="89%" stop-color="#C4C6CC"/><stop offset="100%" stop-color="#B5B7BA"/></linearGradient><linearGradient id="r" y2="57.751%" x2="60.02%" y1="42.402%" x1="40.758%"><stop offset="27%" stop-color="#DFE1E6"/><stop offset="89%" stop-color="#C4C6CC"/><stop offset="100%" stop-color="#B5B7BA"/></linearGradient><linearGradient id="s" y2="50.052%" x2="72.882%" y1="49.526%" x1="27.628%"><stop offset="27%" stop-color="#DFE1E6"/><stop offset="89%" stop-color="#C4C6CC"/><stop offset="100%" stop-color="#B5B7BA"/></linearGradient><linearGradient id="t" y2="99.925%" x2="50%" y1="-.04%" x1="50%"><stop offset="0%" stop-color="#FDB65B"/><stop offset="100%" stop-color="#FD9357"/></linearGradient></defs><g fill-rule="evenodd" fill="none" stroke-width="1" stroke="none"><mask fill="#fff" id="b"><use xlink:href="#a"/></mask><g transform="translate(2 12)" mask="url(#b)"><path fill-rule="nonzero" fill="url(#c)" d="M40.858 7.93a.509.509 0 0 1-.647-.301L38.964 4.28a.506.506 0 0 1 .196-.684c.261-.091.547.04.648.296l1.247 3.348a.506.506 0 0 1-.197.689z"/><ellipse ry="1.712" rx="1.717" cy="2.855" cx="38.897" fill-rule="nonzero" fill="#B5B7BA"/><path transform="rotate(.45 11.17 73.68)" fill-rule="nonzero" fill="url(#d)" d="M6.512 58.487h9.317v30.386H6.511z"/><path transform="rotate(.45 109.228 81.952)" fill-rule="nonzero" fill="url(#e)" d="M104.57 66.759h9.317v30.386h-9.318z"/><path transform="rotate(.573 67.688 83.781)" fill-rule="nonzero" fill="url(#f)" d="M54.068 65.551l27.24-.001-.001 36.462-27.24.001z"/><ellipse ry="16.625" rx="21.507" cy="22.501" cx="25.671" transform="rotate(-17.84 35.982 -43.19)" fill-rule="nonzero" fill="#E5E5E5" stroke-width="1" opacity=".6"/><g fill-rule="nonzero" fill="#FFF" stroke-width="1" opacity=".8"><path d="M30.092 29.587c-2.757-8.542 3.97-18.347 15.03-21.9a25.888 25.888 0 0 1 10.64-1.149 24.841 24.841 0 0 0-14.386.416c-11.063 3.55-17.792 13.354-15.034 21.901 1.851 5.74 7.51 9.446 14.387 10.193-5.132-1.488-9.136-4.807-10.637-9.461z"/><ellipse ry="16.256" rx="21.033" cy="22.023" cx="25.192" transform="rotate(-17.84 37.266 -44.957)"/></g><path fill-rule="nonzero" fill="url(#g)" d="M47.188 21.499l18.645 15.616 62.788 30.525L.206 103.975l39.098-58.533z"/><path transform="rotate(-17.84 141.221 -97.527)" fill-rule="nonzero" fill="url(#h)" d="M-.242 4.741l28.68.022.002 2.86-28.68-.022z" stroke-width="1" opacity=".8"/><path fill-rule="nonzero" fill="#D6D6D6" d="M37.748 42.707l27.308-8.766.878 2.722-27.308 8.766z"/><ellipse ry="11.343" rx="43.499" cy="24.463" cx="45.113" transform="rotate(-17.84 62.028 16.16)" fill-rule="nonzero" fill="url(#i)" stroke-width="1" opacity=".8"/><path fill-rule="nonzero" fill="#DFE1E6" d="M45.13 18.787C23.015 25.89 6.59 36.321 8.45 42.085l80.085-25.713c-1.841-5.768-21.282-4.687-43.404 2.415z"/><path fill-rule="nonzero" fill="#FFF" d="M51.873 39.665c22.117-7.098 38.542-17.53 36.681-23.298L8.47 42.085c1.841 5.763 21.273 4.682 43.404-2.42z"/><path fill-rule="nonzero" fill="#C4C6CC" d="M51.873 39.665c22.117-7.098 38.542-17.53 36.681-23.298L8.47 42.085c1.841 5.763 21.273 4.682 43.404-2.42z"/><path fill-rule="nonzero" fill="#B5B7BA" d="M31.202 31.784L63.986 21.26a2.865 2.865 0 0 1 3.602 1.848 2.856 2.856 0 0 1-1.845 3.597L32.959 37.229a2.865 2.865 0 0 1-3.602-1.848 2.856 2.856 0 0 1 1.845-3.597z"/><g fill-rule="nonzero" fill="#FFF" stroke-width="1" opacity=".5"><path d="M57.916 45.581a.683.683 0 0 0 .25.927c.324.189.74.083.934-.237a.683.683 0 0 0-.757-1.016.686.686 0 0 0-.427.326zM51.25 50.464a.683.683 0 0 0 .25.928c.325.188.74.083.934-.238a.683.683 0 0 0-.757-1.016.686.686 0 0 0-.427.326zM64.241 51.23a.683.683 0 0 0 .25.927c.325.189.74.083.934-.237a.683.683 0 0 0-.757-1.016.686.686 0 0 0-.427.326zM71.43 48.513a.597.597 0 0 0 .504.926.597.597 0 0 0 .301-1.113.6.6 0 0 0-.805.187zM57.82 42.396a.41.41 0 0 0 .347.64.41.41 0 0 0 .204-.766.413.413 0 0 0-.551.126zM55.561 50.115a.414.414 0 0 0 .715.416.414.414 0 0 0-.715-.416zM51.734 44.586a.597.597 0 0 0 .505.927.597.597 0 0 0 .301-1.113.6.6 0 0 0-.806.186zM43.793 52.65a.597.597 0 0 0 .503.94.6.6 0 0 0 .528-.337.598.598 0 0 0-.213-.82.602.602 0 0 0-.823.212l.005.005z"/></g><path transform="rotate(.45 52.74 58.081)" fill-rule="nonzero" fill="url(#j)" d="M52.74 55.202a.77.77 0 0 1 .77.77v4.219a.77.77 0 0 1-1.54 0v-4.22a.77.77 0 0 1 .77-.769z"/><path transform="rotate(50.71 58.608 59.664)" fill-rule="nonzero" fill="url(#k)" d="M58.612 56.78a.766.766 0 0 1 .767.767l-.005 4.231a.77.77 0 0 1-.77.77.766.766 0 0 1-.767-.768l.005-4.23a.77.77 0 0 1 .77-.77z"/><path transform="rotate(132.51 46.555 59.806)" fill-rule="nonzero" fill="url(#l)" d="M46.551 56.922a.77.77 0 0 1 .77.77l.006 4.23a.767.767 0 0 1-.768.767.77.77 0 0 1-.77-.77l-.005-4.23a.767.767 0 0 1 .767-.767z"/><path transform="rotate(.45 70.65 71.472)" fill-rule="nonzero" fill="url(#m)" d="M70.65 61.961c.966 0 1.749.783 1.749 1.748v15.526a1.748 1.748 0 0 1-3.497 0V63.709c0-.965.783-1.748 1.749-1.748z"/><path fill-rule="nonzero" fill="url(#n)" d="M59.249 75.512a1.753 1.753 0 0 1 1.774-1.722l8.632.063a1.748 1.748 0 0 1 1.722 1.765 1.74 1.74 0 0 1-.527 1.227c-.332.323-.779.5-1.243.494l-8.632-.062a1.758 1.758 0 0 1-1.726-1.765z"/><path fill-rule="nonzero" fill="url(#o)" d="M60.146 77.067a1.751 1.751 0 0 1-.696-2.392l4.12-7.59a1.754 1.754 0 0 1 2.397-.694 1.743 1.743 0 0 1 .691 2.368l-4.139 7.638a1.753 1.753 0 0 1-2.373.67z"/><path transform="rotate(.573 40.255 71.79)" fill-rule="nonzero" fill="url(#p)" d="M40.255 62.278c.965 0 1.748.783 1.748 1.748v15.527a1.748 1.748 0 0 1-3.496 0V64.026c0-.965.783-1.748 1.748-1.748z"/><path fill-rule="nonzero" fill="url(#q)" d="M30.94 75.288a1.753 1.753 0 0 1 1.775-1.722l8.656.062a1.748 1.748 0 0 1 1.722 1.765 1.74 1.74 0 0 1-.527 1.227c-.332.323-.78.5-1.243.495l-8.632-.063a1.757 1.757 0 0 1-1.243-.52 1.748 1.748 0 0 1-.507-1.244z"/><path fill-rule="nonzero" fill="url(#r)" d="M31.838 76.842a1.751 1.751 0 0 1-.696-2.392l4.12-7.59a1.753 1.753 0 0 1 2.373-.689 1.743 1.743 0 0 1 .69 2.368l-4.114 7.59a1.75 1.75 0 0 1-2.373.713z"/><path fill-rule="nonzero" fill="url(#s)" d="M56.434 64.062a4.912 4.912 0 0 1-3.894 1.65 4.849 4.849 0 0 1-3.837-1.717 5.36 5.36 0 0 0-1.635 3.826l-.057 7.031c-.024 3.027 2.417 5.5 5.452 5.524 3.035.024 5.515-2.41 5.539-5.438l.058-7.03a5.402 5.402 0 0 0-1.626-3.846zm-2.048 10.824a1.984 1.984 0 0 1-1.99 1.77 1.983 1.983 0 0 1-1.961-1.804l.043-5.26a1.984 1.984 0 0 1 1.989-1.773 1.983 1.983 0 0 1 1.962 1.8l-.043 5.267z"/><path fill-rule="nonzero" fill="#FCD9CB" d="M80.392 57.318a15.087 15.087 0 0 0-1.4 5.261s-.508-.818-3.218-1.678a1.262 1.262 0 0 0-.36-.68.835.835 0 0 0-1.549.267.831.831 0 0 0 .413.867c.185.192.427.32.69.363.749.627 1.732 1.966 4.393 2.722 0 0 .398.387.662-.33 0 0 1.525-1.253 2.259-6.304l-1.89-.488zM85.457 57.581c.036 1.836.408 3.65 1.098 5.352a22.246 22.246 0 0 0-5.141.416l-.1.833c2.083.576 4.273.663 6.396.253 0 0 .528.172.446-.583 0 0 .81-1.804-.781-6.649l-1.918.378zM83.294 56.462v-2.229H84.9l.158 2.229z"/><path fill-rule="nonzero" fill="#333" d="M79.539 84.686s-2.062-.1-.441.89c0 0 2.397 1.51 3.356.573a1.107 1.107 0 0 0-.105-1.2 16.14 16.14 0 0 0-2.81-.263zM84.325 84.385s-2.038-.307-.528.837c0 0 2.245 1.745 3.276.904.24-.365.24-.836 0-1.201a15.79 15.79 0 0 0-2.748-.54z"/><path fill-rule="nonzero" fill="#666" d="M81.932 66.726s-1.367.775-1.16 3.138v15.085h1.587s.24-8.021 1.587-13.139c0 0 1.132 4.377 1.079 13.139a2.47 2.47 0 0 0 2.043 0s.575-12.206-.106-17.266l-5.03-.957z"/><ellipse ry="2.138" rx="2.488" cy="52.71" cx="84.271" transform="rotate(-63.01 84.27 52.71)" fill-rule="nonzero" fill="#FCD9CB"/><path fill-rule="nonzero" fill="#666" d="M86.205 50.273s-1.44-1.033-2.619-.158c0 0-.781.478-.901.048 0 0-.835.593.379 1.325.24.15.527.203.805.148 0 0 .748-.09.331.722 0 0-.25.665-.82.636 0 0-.614.45.441 1.66 0 0 1.736.957 3.242-1.573 0 0 .854-1.555-.858-2.808z"/><path fill-rule="nonzero" fill="url(#t)" d="M87.571 59.179l.427-.182c-.115-2.621-2.259-2.975-2.259-2.975-1.03.234-2.099.249-3.136.043 0 0-2.398-.253-3.064 3.492l1.53.516a38.374 38.374 0 0 1-.456 5.582s-.551 1.722.456 2.032c0 0 3.625.957 5.874 0 0 0 .734-.31.523-1.913a31.384 31.384 0 0 1 .038-6.217s.034-.153.067-.378z"/></g></g></svg>
