<svg xmlns:xlink="http://www.w3.org/1999/xlink" xmlns="http://www.w3.org/2000/svg" version="1.1" viewBox="0 0 120 120" height="120" width="120"><defs><path id="a" d="M0 0h120v120H0z"/><linearGradient id="c" y2="0%" x2="50%" y1="100%" x1="50%"><stop offset="0%" stop-opacity="0" stop-color="#FFF"/><stop offset="41%" stop-opacity=".14" stop-color="#FBFBFC"/><stop offset="66%" stop-opacity=".48" stop-color="#F0F1F3"/><stop offset="100%" stop-color="#DFE1E6"/></linearGradient><linearGradient id="d" y2="50%" x2="100%" y1="50%" x1="0%"><stop offset="27%" stop-color="#DFE1E6"/><stop offset="89%" stop-color="#D1D3D8"/><stop offset="100%" stop-color="#C4C6CC"/></linearGradient><linearGradient id="e" y2="100.057%" x2="50%" y1="0%" x1="50%"><stop offset="0%" stop-color="#FFF"/><stop offset="100%" stop-color="#E9EBF0"/></linearGradient><linearGradient id="f" y2="50%" x2="100%" y1="50%" x1="0%"><stop offset="0%" stop-color="#E9EBF0"/><stop offset="100%" stop-color="#DFE1E6"/></linearGradient><linearGradient id="g" y2="50.02%" x2="100%" y1="50.02%" x1="0%"><stop offset="0%" stop-color="#E9EBF0"/><stop offset="100%" stop-color="#DFE1E6"/></linearGradient><linearGradient id="h" y2="50.031%" x2="100%" y1="50.031%" x1="0%"><stop offset="0%" stop-color="#E9EBF0"/><stop offset="100%" stop-color="#DFE1E6"/></linearGradient><linearGradient id="i" y2="83.726%" x2="100.489%" y1="47.19%" x1="21.274%"><stop offset="27%" stop-color="#DFE1E6"/><stop offset="89%" stop-color="#D1D3D8"/><stop offset="100%" stop-color="#C4C6CC"/></linearGradient><linearGradient id="j" y2="50.058%" x2="100.026%" y1="50.058%" x1="0%"><stop offset="0%" stop-color="#FDB65B"/><stop offset="100%" stop-color="#FD9357"/></linearGradient></defs><g fill-rule="evenodd" fill="none" stroke-width="1" stroke="none"><mask fill="#fff" id="b"><use xlink:href="#a"/></mask><g transform="translate(-1 13)" fill-rule="nonzero" mask="url(#b)"><ellipse ry="21" rx="60" cy="103.992" cx="61.027" fill="url(#c)"/><g fill="none" stroke-width="1"><path fill="#EEEEF0" d="M54.583 15.031h54.506v73.72H54.583zM56.957 88.751h48.354v2.275H56.957z"/><path fill="#DADBDE" d="M44.773 9.456h58.563v79.2H44.773zM47.331 88.656h51.954v2.441H47.331z"/><path fill="url(#d)" d="M26.438.101h65.274v88.277H26.438z"/><path fill="#FFF" d="M32.429 9.142h52.977V79.84H32.429z"/><path fill="#BBBDC4" d="M26.438 3.614h65.274v1H26.438z"/><path fill="#B5B7BA" d="M29.282 88.377h57.903v2.725H29.282z"/><path fill="url(#e)" d="M28.687 34.517h1.19v10.309h-1.19z"/><path fill="url(#f)" d="M32.429 9.142h52.977v16.53H32.429z"/><path fill="url(#g)" d="M32.429 64.88h52.977v14.96H32.429z"/><path fill="url(#h)" d="M32.429 32.899h52.977v9.627H32.429z"/><path fill="#BBBDC4" d="M32.429 32.307h52.977v1H32.429z"/><path fill="url(#h)" d="M32.429 44.778h52.977v9.627H32.429z"/><path fill="#BBBDC4" d="M32.429 44.186h52.977v1H32.429z"/><path fill="#FFF" d="M32.429 25.671h52.977v37.053H32.429z"/><path fill="url(#i)" d="M74.864 55.567L60.27 30.684a1.72 1.72 0 0 0-2.975 0L42.905 55.768a1.712 1.712 0 0 0 .643 2.37c.263.148.56.226.862.225l28.984-.166a1.72 1.72 0 0 0 1.503-.89c.3-.547.279-1.214-.057-1.74h.024z"/><path fill="#FFF" d="M60.128 51.283c0 .665-.54 1.203-1.208 1.203a1.205 1.205 0 0 1-1.208-1.203v-.041c0-.664.541-1.203 1.208-1.203.667 0 1.208.539 1.208 1.203v.041zm0-4.39c0 .655-.533 1.185-1.19 1.185-.657 0-1.19-.53-1.19-1.185l-.03-6.386c0-.663.54-1.2 1.205-1.2s1.205.537 1.205 1.2v6.386z"/><path fill="#FCD9CB" d="M100.498 61.385s-7.805.948-7.49-5.196h-1.677s-.797 7.323 7.27 7.364l1.897-2.168z"/><path fill="#A09A8D" d="M89.272 56.319v5.066l23.25-.806.458-4.982z"/><path fill="#FCD9CB" d="M92.27 56.124a1.403 1.403 0 0 1 1.316-1.025s1.755-.036 1.743 1.386c0 0 0 .836-1.285.836 0 0-1.149-.119-1.149-1.108l-.624-.09z"/><path fill="#333" d="M98.285 94.332s-3.444-.178-4.164.995c0 0-.178.592 1.362.675l3.933.184s.375-.047.398-.77c0 0 .078-.995-.398-1.398l-1.13.314zM106.001 92.572l-.267 1.084s-2.184 1.985-2.273 3.253c0 0 1.226.906 4.676-2.625a3.048 3.048 0 0 0-1.19-2.186l-.946.474z"/><path fill="#666" d="M97.994 75.99l-2.975 5.082s-.684 1.156 0 3.117l2.737 10.617 1.66-.338-1.547-10.469s-.512-1.303.595-1.848c0 0 3.17-1.487 5.306-5.824l-5.776-.338z"/><path fill="#666" d="M105.734 93.656s-2.79-5.924-6.485-10.143c0 0-1.13-1.422-.404-2.642l1.993-5.427 3.36-.338s.274 3.727-1.362 6.375a1.087 1.087 0 0 0 .066 1.487s3.082 5.735 4.236 9.806l-1.404.882z"/><ellipse ry="2.588" rx="3.128" cy="56.572" cx="101.396" transform="rotate(-87.97 101.396 56.572)" fill="#FCD9CB"/><path fill="#FCD9CB" d="M101.316 57.877l2.045.073-.149 4.19-2.046-.07z"/><path fill="#666" d="M103.437 52.765a3.438 3.438 0 0 0-3.527.397l-.203.13-.047 1.345c.489-.013.975-.076 1.451-.19 2.505-.1 1.833 1.86 1.833 1.86a.525.525 0 0 1 .69.072 2.664 2.664 0 0 1-.595 2.05 2.615 2.615 0 0 0 1.886-2.305 4.004 4.004 0 0 0-1.488-3.36z"/><path fill="#DDB300" d="M98.476 54.874s-4.307.225 1.88.954c1.55.13 3.11.087 4.652-.125l-6.532-.83z"/><path fill="#F4DC00" d="M98.458 55.182s-.036-3.555 3.724-3.395c0 0 3.123.201 2.826 3.916a28.48 28.48 0 0 1-6.55-.521z"/><path fill="url(#j)" d="M100.41 60.798a7.585 7.585 0 0 0-3.725 6.15l2.16.676-1.839 8.886 7.58.723s3.129-11.748-.411-16.766a.98.98 0 0 0-1.041 0 1.952 1.952 0 0 1-2.088.177s-.232-.094-.637.154z"/><path fill="#FCD9CB" d="M97.334 67.15l2.326.793s-2.874 6.352-7.508 8.022l-1.047-1.155a14.006 14.006 0 0 0 6.229-7.66z"/><path fill="#FCD9CB" d="M91.712 74.603l-.464-.077a1.39 1.39 0 0 0-1.553.035 1.324 1.324 0 0 0 .155 2.05s1.053.563 2.248-.539c0 0 .583-.658-.386-1.47z"/><path fill="#D1D3D8" d="M21.738 62.546l-3.891 13.005-.565-14.853zM11.458 55.964l4.158 20.357L2.6 60.141zM2.112 69.176l12.713 7.696-14.67-3.211z"/><path fill="#CCC" d="M40.08 99.533H35.2V98.35h4.88c1.605 0 4.925-.457 4.925-1.867s-3.308-1.848-4.926-1.848H28.687a69.472 69.472 0 0 1-9.555-.936c-6.597-1.185-9.947-3.235-9.947-6.109 0-2.417 2.154-4.224 6.402-5.373l.309 1.143c-3.665.99-5.52 2.412-5.52 4.23 0 4.55 13.224 5.771 18.323 5.86h11.38c.63 0 6.116.089 6.116 3.057s-5.48 3.027-6.116 3.027zM20.084 82.53l-.16-1.185a54.405 54.405 0 0 1 6.544-.468v1.185a53.568 53.568 0 0 0-6.384.468z"/></g></g></g></svg>
