<svg xmlns:xlink="http://www.w3.org/1999/xlink" xmlns="http://www.w3.org/2000/svg" version="1.1" viewBox="0 0 120 120" height="120" width="120"><defs><path id="a" d="M0 0h120v120H0z"/><linearGradient id="c" y2="77.229%" x2="41.766%" y1="22.999%" x1="60.84%"><stop offset="27%" stop-color="#DFE1E6"/><stop offset="89%" stop-color="#C4C6CC"/><stop offset="100%" stop-color="#B5B7BA"/></linearGradient><linearGradient id="d" y2="86.976%" x2="87.211%" y1="12.419%" x1="12.181%"><stop offset="27%" stop-color="#E9EBF0"/><stop offset="89%" stop-color="#D1D3D8"/><stop offset="100%" stop-color="#C4C6CC"/></linearGradient><linearGradient id="e" y2="16.087%" x2="15.872%" y1="84.837%" x1="85.058%"><stop offset="3%" stop-color="#E5E5E5"/><stop offset="28%" stop-color="#DFDFE1"/><stop offset="61%" stop-color="#CFCFD4"/><stop offset="74%" stop-color="#C6C7CE"/><stop offset="100%" stop-color="#A3A5AB"/></linearGradient><linearGradient id="f" y2="17.137%" x2="16.929%" y1="83.36%" x1="83.571%"><stop offset="0%" stop-color="#E5E5E5"/><stop offset="22%" stop-color="#E0E0E0"/><stop offset="50%" stop-color="#D0D1D3"/><stop offset="81%" stop-color="#B7B8BC"/><stop offset="100%" stop-color="#A3A5AB"/></linearGradient><linearGradient id="g" y2="50%" x2="99.895%" y1="50%" x1="0%"><stop offset="27%" stop-color="#E5E5E5"/><stop offset="89%" stop-color="#C6C7CE"/><stop offset="89%" stop-color="#C6C7CE"/><stop offset="100%" stop-color="#E5E5E5"/></linearGradient><linearGradient id="h" y2="16.665%" x2="16.453%" y1="84.028%" x1="84.244%"><stop offset="0%" stop-color="#E5E5E5"/><stop offset="22%" stop-color="#DFDFE0"/><stop offset="51%" stop-color="#CFCFD1"/><stop offset="83%" stop-color="#B4B5BA"/><stop offset="100%" stop-color="#A3A5AB"/></linearGradient><linearGradient id="i" y2="16.087%" x2="15.872%" y1="84.375%" x1="84.593%"><stop offset="0%" stop-opacity="0" stop-color="#C6C7CE"/><stop offset="12%" stop-opacity=".03" stop-color="#C5C6CD"/><stop offset="28%" stop-opacity=".13" stop-color="#C1C3C9"/><stop offset="46%" stop-opacity=".29" stop-color="#BCBDC4"/><stop offset="66%" stop-opacity=".52" stop-color="#B4B5BC"/><stop offset="87%" stop-opacity=".8" stop-color="#AAACB2"/><stop offset="100%" stop-color="#A3A5AB"/></linearGradient><linearGradient id="j" y2="83.866%" x2="84.305%" y1="15.689%" x1="15.695%"><stop offset="0%" stop-color="#A3A5AB"/><stop offset="1%" stop-color="#A4A6AC"/><stop offset="19%" stop-color="#B7B8BF"/><stop offset="39%" stop-color="#C2C3CA"/><stop offset="59%" stop-color="#C6C7CE"/><stop offset="100%" stop-color="#E5E5E5"/></linearGradient><linearGradient id="k" y2="84.818%" x2="85.433%" y1="14.008%" x1="13.78%"><stop offset="0%" stop-color="#A3A5AB"/><stop offset="1%" stop-color="#A4A6AC"/><stop offset="19%" stop-color="#B7B8BF"/><stop offset="39%" stop-color="#C2C3CA"/><stop offset="59%" stop-color="#C6C7CE"/><stop offset="100%" stop-color="#E5E5E5"/></linearGradient><linearGradient id="l" y2="50%" x2="100.392%" y1="50%" x1=".392%"><stop offset="0%" stop-color="#C6C7CE"/><stop offset="33%" stop-color="#C1C2C9"/><stop offset="73%" stop-color="#B1B3B9"/><stop offset="100%" stop-color="#A3A5AB"/></linearGradient><linearGradient id="m" y2="39.674%" x2="92.125%" y1="50.949%" x1="9.492%"><stop offset="27%" stop-color="#DFE1E6"/><stop offset="89%" stop-color="#D1D3D8"/><stop offset="100%" stop-color="#C4C6CC"/></linearGradient><linearGradient id="n" y2="17.588%" x2="21.816%" y1="88.442%" x1="89.004%"><stop offset="0%" stop-color="#DFE1E6"/><stop offset="89%" stop-color="#C4C6CC"/><stop offset="100%" stop-color="#B5B7BA"/></linearGradient><linearGradient id="o" y2="84.658%" x2="83.902%" y1="14.574%" x1="15.366%"><stop offset="57%" stop-color="#E9EBF0"/><stop offset="100%" stop-color="#D1D3D8"/></linearGradient><linearGradient id="p" y2="90.199%" x2="48.533%" y1=".683%" x1="51.355%"><stop offset="0%" stop-color="#DFE1E6"/><stop offset="100%" stop-color="#C4C6CC"/></linearGradient><linearGradient id="q" y2="14.726%" x2="51.397%" y1="98.779%" x1="48.489%"><stop offset="0%" stop-color="#E5E5E5"/><stop offset="20%" stop-color="#E0E0E1"/><stop offset="46%" stop-color="#D0D1D6"/><stop offset="74%" stop-color="#B7B9C3"/><stop offset="74%" stop-color="#B6B8C3"/><stop offset="100%" stop-color="#A3A5AB"/></linearGradient><linearGradient id="r" y2="100%" x2="50%" y1="0%" x1="50%"><stop offset="0%" stop-color="#FDB65B"/><stop offset="100%" stop-color="#FD9357"/></linearGradient></defs><g fill-rule="evenodd" fill="none" stroke-width="1" stroke="none"><mask fill="#fff" id="b"><use xlink:href="#a"/></mask><g transform="translate(14 6)" fill-rule="nonzero" mask="url(#b)"><path fill="url(#c)" d="M7.638 80.463H5.393a4.042 4.042 0 0 1-2.36-1.116 7.707 7.707 0 0 1-1.496-3.053 34.112 34.112 0 0 1-.914-9.961c.055-1.29.32-2.56.781-3.765.763-1.63 2.924-1.81 4.461-2.27.127-.035-.744 5.22-.351 9.962a46.541 46.541 0 0 0 2.124 10.203z"/><ellipse ry="40.147" rx="40.274" cy="67.298" cx="45.594" fill="url(#d)"/><ellipse ry="5.189" rx="5.205" cy="40.406" cx="36.727" fill="url(#e)"/><ellipse ry="4.223" rx="4.237" cy="63.648" cx="41.933" fill="url(#f)"/><ellipse ry="2.884" rx="2.893" cy="3.137" cx="22.855" fill="url(#g)"/><ellipse ry="5.189" rx="5.205" cy="56.54" cx="68.328" opacity=".6" fill="url(#h)"/><ellipse ry="5.189" rx="5.205" cy="88.174" cx="28.242" fill="url(#i)"/><ellipse ry="1.345" rx="1.35" cy="59.231" cx="18.612" fill="url(#j)"/><ellipse ry="1" rx="1" cy="36.756" cx="61.198" fill="url(#k)"/><path transform="rotate(-34.83 20.7 30.299)" fill="url(#l)" d="M20.572 13.762h.212c.366 0 .663.297.664.664l.047 31.743a.665.665 0 0 1-.666.667h-.212a.665.665 0 0 1-.664-.665l-.047-31.743a.665.665 0 0 1 .666-.666z"/><path fill="url(#m)" d="M30.965 15.88L3.3 3.168a1.82 1.82 0 0 0-1.807.167c-.53.373-.819 1-.76 1.643L3.53 35.284a1.814 1.814 0 0 0 2.85 1.31L31.31 19.03a1.806 1.806 0 0 0 .436-2.522c-.2-.268-.47-.477-.78-.604v-.024z"/><path fill="#FFF" d="M16.518 22.547a1.55 1.55 0 0 1 .152 1.547 1.562 1.562 0 0 1-2.688.263l-.03-.036a1.551 1.551 0 0 1 .36-2.169c.7-.5 1.674-.339 2.175.36l.03.035zm-3.28-4.627a1.55 1.55 0 0 1 .151 1.547 1.562 1.562 0 0 1-2.688.263l-4.77-6.734a1.551 1.551 0 0 1 .36-2.169c.701-.5 1.675-.339 2.177.36l4.77 6.727v.006z"/><path fill="url(#n)" d="M78.938 36.038c-3.026-3.131-6.391-4.827-7.475-3.77-.048.048-2.245 1.646-3.026 2.183l-1.73 1.207c-.261.181-.467.362-.419.706 0 .078 0 .163.049.241.042.218.103.429.163.64.19.605.416 1.197.678 1.774.342.76.736 1.496 1.18 2.202.515.833 1.1 1.62 1.75 2.353.716.822 1.513 1.57 2.378 2.232.952.723 1.986 1.33 3.081 1.81.42.189.847.356 1.283.501.484.17.98.296 1.471.435.173.054.36.054.533 0a.919.919 0 0 0 .454-.417c.17-.277 3.316-4.742 3.335-4.76.756-1.219-.824-4.404-3.705-7.337z"/><ellipse ry="7.421" rx="7.445" cy="7.596" cx="82.219" fill="url(#o)"/><path fill="#D1D3D8" d="M75.67 14.263a5.524 5.524 0 0 1-1.52-.193 2.354 2.354 0 0 1-1.47-1.104c-.297-.603-.454-1.575.508-3.125.457-.71.989-1.37 1.586-1.967l.079.863.151.718a7.41 7.41 0 0 0-.75 1.043c-.509.82-.672 1.49-.46 1.883.162.255.422.432.72.488 1.816.537 5.526-.458 9.079-2.413 2.972-1.641 5.405-3.686 6.513-5.472.508-.82.671-1.49.46-1.883a1.422 1.422 0 0 0-.824-.603 3.94 3.94 0 0 0-2.076.048l-1.24-1.062c2.79-.603 4.587-.247 5.253 1.014.297.603.454 1.575-.508 3.125-1.21 1.961-3.82 4.17-6.973 5.907-3.153 1.738-6.276 2.733-8.528 2.733z"/><g fill="#FFF" stroke-width="1" opacity=".5"><path d="M63.099 73.874a.812.812 0 0 0 .056.905.819.819 0 0 0 1.46-.388.819.819 0 0 0-1.516-.517zM55.206 79.751a.806.806 0 0 0 .297 1.116.82.82 0 0 0 1.348-.67.815.815 0 0 0-.55-.717.813.813 0 0 0-1.095.271zM70.689 80.541a.812.812 0 0 0 .061.904.819.819 0 0 0 1.458-.395.819.819 0 0 0-1.52-.509zM79.217 77.241a.71.71 0 0 0 .307.86.716.716 0 0 0 .903-.148.71.71 0 0 0-.576-1.176.714.714 0 0 0-.634.464zM62.96 70.085a.491.491 0 0 0 .85.486.488.488 0 0 0-.179-.667.497.497 0 0 0-.672.181zM60.339 79.293a.487.487 0 0 0 .553.715.49.49 0 1 0-.553-.715zM55.696 72.752a.71.71 0 0 0 .307.86.716.716 0 0 0 .904-.148.71.71 0 0 0-.577-1.176.714.714 0 0 0-.634.464zM46.345 82.418a.71.71 0 0 0 .307.86.716.716 0 0 0 .904-.148.71.71 0 0 0-.577-1.177.714.714 0 0 0-.634.465z"/></g><ellipse ry="7.952" rx="2.738" cy="37.833" cx="77.037" transform="rotate(-43.52 77.037 37.833)" fill="url(#p)"/><ellipse ry="5.633" rx="1.512" cy="37.526" cx="77.13" transform="rotate(-43.386 77.13 37.526)" fill="url(#q)"/><path fill="#333" d="M42.798 32.213a8.674 8.674 0 0 0-3.631 2.92s-.103 1.261 2.826.47a13.119 13.119 0 0 0 3.026-1.562v-1.81l-2.22-.018zM39.996 30.385a8.735 8.735 0 0 0-3.632 2.92s-.103 1.261 2.827.477a12.973 12.973 0 0 0 3.026-1.569v-1.81l-2.221-.018z"/><path fill="#FCD9CB" d="M46.902 6.046s-1.386.947-1.21 3.324c.024.552.27 1.07.682 1.44.412.37.955.56 1.508.527v1.569l2.536-.308v-2.287l1.616-2.142-2.33-3.234-2.802 1.11z"/><path fill="#666" d="M47.598 4.996s3.293-1.31 4.455.91c0 0 1.422 3.235-1.368 4.496 0 0-.963.205-.097-.555.37-.31.579-.768.569-1.25 0 0-.09-.645-1.017-.494 0 0 .194-2.6-2.306-2.22 0 0-1.368.603-2.137-.079 0 0-.405-.428-.09-.67 0 0 .254-.126.29.218 0 0 .115.301 1.7-.356z"/><path fill="url(#r)" d="M50.818 11.512a2.422 2.422 0 0 1-3.59.428 5.094 5.094 0 0 0-3.122 2.462l.205 2.763 9.352 9.177 3.48-.356s-.4-7.143-2.1-10.824c0 0-1.629-3.095-4.225-3.65z"/><path fill="#666" d="M45.97 18.963s-2.137-4.76-4.752-.567c0 0-2.294 3.566-1.265 12.411.685.398 1.531.398 2.216 0l3.8-11.844z"/><path fill="#666" d="M54.014 26.143s-1.495-8.76-6.331-8.525c0 0-6.265.398-5.448 14.372a2.633 2.633 0 0 0 2.99.603s.285-7.403 3.111-5.52c.862.909 1.806 1.737 2.82 2.473 2.204 1.43 5.309 1.587 5.406-3.62l-2.548.217z"/><path fill="#FCD9CB" d="M51.738 18.541l-3.33 4.513s-1.264 0-4.508-2.504c0 0-2.125-1.285.847-3.282l-.641-2.848a9.45 9.45 0 0 0-3.432 4.079 3.01 3.01 0 0 0 .69 3.475 14.942 14.942 0 0 0 6.464 3.807 1.934 1.934 0 0 0 2.59-.712s2.161-2.842 3.354-4.422l-2.034-2.106z"/></g></g></svg>
