<svg xmlns:xlink="http://www.w3.org/1999/xlink" xmlns="http://www.w3.org/2000/svg" version="1.1" viewBox="0 0 120 120" height="120" width="120"><defs><path id="a" d="M0 0h120v120H0z"/><linearGradient id="c" y2="75.233%" x2="50.285%" y1="1.854%" x1="49.451%"><stop offset="0%" stop-color="#D1D3D8"/><stop offset="100%" stop-opacity="0" stop-color="#E5E5E5"/></linearGradient><linearGradient id="d" y2="-.891%" x2="50.528%" y1="98.784%" x1="49.51%"><stop offset="0%" stop-opacity="0" stop-color="#E5E5E5"/><stop offset="12%" stop-opacity=".03" stop-color="#E3E3E3"/><stop offset="28%" stop-opacity=".13" stop-color="#DCDDDD"/><stop offset="46%" stop-opacity=".29" stop-color="#D2D2D4"/><stop offset="66%" stop-opacity=".51" stop-color="#C3C4C7"/><stop offset="87%" stop-opacity=".79" stop-color="#B1B2B7"/><stop offset="100%" stop-color="#A3A5AB"/></linearGradient><linearGradient id="e" y2="1.748%" x2="50.313%" y1="101.498%" x1="49.687%"><stop offset="0%" stop-color="#E5E5E5"/><stop offset="22%" stop-color="#DFDFE0"/><stop offset="51%" stop-color="#CFCFD1"/><stop offset="83%" stop-color="#B4B5BA"/><stop offset="100%" stop-color="#A3A5AB"/></linearGradient><linearGradient id="f" y2="-.267%" x2="49.764%" y1="99.405%" x1="50.157%"><stop offset="0%" stop-color="#E5E5E5"/><stop offset="22%" stop-color="#DFDFE0"/><stop offset="51%" stop-color="#CFCFD1"/><stop offset="83%" stop-color="#B4B5BA"/><stop offset="100%" stop-color="#A3A5AB"/></linearGradient><linearGradient id="g" y2="91.923%" x2="83.851%" y1="11.112%" x1="32.112%"><stop offset="27%" stop-color="#DFE1E6"/><stop offset="89%" stop-color="#C4C6CC"/><stop offset="100%" stop-color="#B5B7BA"/></linearGradient><linearGradient id="h" y2="19.978%" x2="85.776%" y1="86.694%" x1="22.669%"><stop offset="27%" stop-color="#DFE1E6"/><stop offset="89%" stop-color="#C4C6CC"/><stop offset="100%" stop-color="#B5B7BA"/></linearGradient><linearGradient id="i" y2="25.258%" x2="36.906%" y1="74.525%" x1="63.165%"><stop offset="27%" stop-color="#DFE1E6"/><stop offset="89%" stop-color="#C4C6CC"/><stop offset="100%" stop-color="#B5B7BA"/></linearGradient><linearGradient id="j" y2="546.841%" x2="-850.712%" y1="618.433%" x1="-943.849%"><stop offset="0%" stop-color="#E5E5E5"/><stop offset="20%" stop-color="#E0E0E1"/><stop offset="46%" stop-color="#D0D1D6"/><stop offset="74%" stop-color="#B7B9C3"/><stop offset="74%" stop-color="#B6B8C3"/><stop offset="100%" stop-color="#A3A5AB"/></linearGradient><linearGradient id="k" y2="-.034%" x2="50.229%" y1="96.406%" x1="49.742%"><stop offset="0%" stop-color="#E5E5E5"/><stop offset="27%" stop-color="#DFDFE1"/><stop offset="63%" stop-color="#CFD0D5"/><stop offset="100%" stop-color="#B6B8C3"/></linearGradient><linearGradient id="l" y2="49.991%" x2="100%" y1="49.991%" x1="-.05%"><stop offset="0%" stop-color="#FDB65B"/><stop offset="100%" stop-color="#FD9357"/></linearGradient><linearGradient id="m" y2="9014.947%" x2="-38194.177%" y1="9014.947%" x1="-38253.186%"><stop offset="0%" stop-color="#EDEDED"/><stop offset="66%" stop-color="#DCDCDC"/><stop offset="100%" stop-color="#DCDCDC"/></linearGradient><linearGradient id="n" y2="-4710.655%" x2="-457.436%" y1="-4668.197%" x1="-547.949%"><stop offset="0%" stop-color="#D0D1D7"/><stop offset="8%" stop-color="#C1C3C8"/><stop offset="18%" stop-color="#B6B8BD"/><stop offset="28%" stop-color="#B2B4B9"/><stop offset="100%" stop-color="#B2B4B9"/></linearGradient><linearGradient id="o" y2="50%" x2="100%" y1="50%" x1="0%"><stop offset="0%" stop-opacity=".25" stop-color="#E8E8E8"/><stop offset="54%" stop-opacity=".12" stop-color="#E8E8E8"/><stop offset="100%" stop-opacity=".1" stop-color="#E8E8E8"/></linearGradient><linearGradient id="p" y2="3.239%" x2="61.864%" y1="96.317%" x1="38.057%"><stop offset="27%" stop-color="#EAEAEA"/><stop offset="77%" stop-color="#CBCDD3"/><stop offset="89%" stop-color="#C3C5CD"/><stop offset="100%" stop-color="#B2B4B9"/></linearGradient><linearGradient id="q" y2="297.248%" x2="80.196%" y1="297.248%" x1=".629%"><stop offset="0%" stop-color="#FFF"/><stop offset="59%" stop-color="#FAFAFA"/><stop offset="80%" stop-color="#F6F6F6"/><stop offset="100%" stop-color="#FFF"/></linearGradient><linearGradient id="r" y2="49.985%" x2="100%" y1="49.985%" x1="0%"><stop offset="0%" stop-opacity=".25" stop-color="gray"/><stop offset="54%" stop-opacity=".12" stop-color="gray"/><stop offset="100%" stop-opacity=".1" stop-color="gray"/></linearGradient><linearGradient id="s" y2="49.99%" x2="100%" y1="49.99%" x1="-.039%"><stop offset="0%" stop-opacity=".25" stop-color="gray"/><stop offset="54%" stop-opacity=".12" stop-color="gray"/><stop offset="100%" stop-opacity=".1" stop-color="gray"/></linearGradient></defs><g fill-rule="evenodd" fill="none" stroke-width="1" stroke="none"><mask fill="#fff" id="b"><use xlink:href="#a"/></mask><g transform="translate(15)" mask="url(#b)"><ellipse ry="38.939" rx="38.988" cy="80.639" cx="39.538" fill-rule="nonzero" fill="url(#c)"/><ellipse ry="7.367" rx="7.376" cy="73.878" cx="16.003" opacity=".6" fill-rule="nonzero" fill="url(#d)"/><ellipse ry="4.439" rx="4.444" cy="58.644" cx="25.799" opacity=".6" fill-rule="nonzero" fill="url(#e)"/><ellipse ry="3.533" rx="3.538" cy="72.667" cx="60.042" opacity=".6" fill-rule="nonzero" fill="url(#f)"/><path fill-rule="nonzero" fill="url(#g)" d="M64.987 51.178l4.778-2.95s7.949 4.766 8.9 12.41l-3.794 3.656s-2.609-6.86-9.884-13.116z"/><path fill-rule="nonzero" fill="url(#h)" d="M21.349 47.2a12.225 12.225 0 0 1-9.807 12.361l-2.225.445-5.006-7.312 10.88-10.183L21.35 47.2z"/><path fill-rule="nonzero" fill="url(#i)" d="M15.297 42.506c-1.113-1.195-4.59.122-7.61 2.888-3.02 2.767-4.583 5.973-3.493 7.167 1.09 1.195 4.45-.089 7.454-2.855 3.004-2.767 4.74-6.012 3.649-7.2z"/><path fill-rule="nonzero" fill="url(#j)" d="M13.456 44.15c-.735-.794-3.076.083-5.096 1.939-2.019 1.855-3.076 4.005-2.341 4.8.734.794 2.97-.056 5.006-1.911 2.036-1.856 3.165-4.028 2.43-4.828z"/><path fill-rule="nonzero" fill="#B5B7BA" d="M19.697 53.739s3.476-8.4 10.569-10.922a35.782 35.782 0 0 0-9.674 3.794l.685.639c.23 2.28-.327 4.57-1.58 6.489z"/><ellipse ry="1" rx="1" cy="77.206" cx="40.345" fill-rule="nonzero" fill="#FFF"/><ellipse ry="1" rx="1" cy="81.744" cx="45.09" fill-rule="nonzero" fill="#FFF"/><ellipse ry="1" rx="1" cy="86.994" cx="63.068" fill-rule="nonzero" fill="#FFF"/><ellipse ry="1" rx="1" cy="81.744" cx="49.734" fill-rule="nonzero" fill="#FFF"/><ellipse ry="1" rx="1" cy="84.972" cx="42.264" fill-rule="nonzero" fill="#FFF"/><ellipse ry="1" rx="1" cy="76.3" cx="46.708" fill-rule="nonzero" fill="#FFF"/><ellipse ry="1" rx="1" cy="86.183" cx="56.81" fill-rule="nonzero" fill="#FFF"/><ellipse ry="1" rx="1" cy="85.178" cx="59.435" fill-rule="nonzero" fill="#FFF"/><ellipse ry="1" rx="1" cy="86.994" cx="59.435" fill-rule="nonzero" fill="#FFF"/><path opacity=".2" fill-rule="nonzero" fill="#A3A5AB" d="M61.633 56.561c-3.266.322-11.838 1.111-17.767.95l-8.444-11.605 15.83-22.367a44.942 44.942 0 0 0 12.728 4.644l-1.001 27.111"/><g fill-rule="nonzero" fill="#C6C7CE" stroke-width="1" opacity=".8"><path d="M51.308 38.406a.35.35 0 0 1-.11-.073.394.394 0 0 1-.04-.555 2.683 2.683 0 0 1 4.695 1.822.389.389 0 0 1-.406.389.406.406 0 0 1-.395-.411 1.882 1.882 0 0 0-3.287-1.272.418.418 0 0 1-.457.105v-.005z"/><path d="M50.224 36.322a.378.378 0 0 1-.167-.128.389.389 0 0 1 .067-.555 5.011 5.011 0 0 1 4.874-.65 5.001 5.001 0 0 1 3.08 3.828.406.406 0 0 1-.34.455.412.412 0 0 1-.455-.339 4.173 4.173 0 0 0-2.577-3.233 4.182 4.182 0 0 0-4.098.567.395.395 0 0 1-.395.055h.01z"/><path d="M49.128 34.322a.412.412 0 0 1-.245-.443.394.394 0 0 1 .167-.257 7.278 7.278 0 0 1 6.777-.745 7.264 7.264 0 0 1 4.415 5.19.394.394 0 0 1-.306.472.406.406 0 0 1-.478-.311 6.463 6.463 0 0 0-3.93-4.591 6.476 6.476 0 0 0-6.01.657.4.4 0 0 1-.379.045l-.011-.017zM51.876 39.711a1.11 1.11 0 0 0 .156 1.111c.252.32.653.482 1.056.428a1.112 1.112 0 0 0 .735-1.811c-.25-.318-.65-.48-1.052-.428-.401.05-.744.314-.895.689v.011z"/></g><path fill="none" d="M46.839 38.935l3.377-8.302 11.29 4.581-3.376 8.303z"/><ellipse ry="14.845" rx="7.062" cy="51.771" cx="48.723" transform="rotate(-72.49 48.723 51.771)" fill-rule="nonzero" fill="url(#k)"/><path fill-rule="nonzero" fill="#333" d="M30.666 105.728l-1.897 1.944s-.99 1.167 1.113.778c0 0 2.492-.556 2.152-1.711l-.255-1.011h-1.113z"/><path fill-rule="nonzero" fill="#333" d="M32.669 106.761l-1.953 2.183s-1.079 1.323 1.357.884c0 0 1.708-.678 2.225-1.767 0 0 .195-.955-.306-1.422l-1.323.122z"/><path fill-rule="nonzero" fill="#666" d="M28.09 88.022a51.736 51.736 0 0 0-.31 10.556 4.784 4.784 0 0 0 .31 1.71L30.378 106h1.196l-.985-5.811s-.556-2.778.362-8.05c0 0 .834-.778.884.417-.068 4.888.158 9.777.679 14.638h1.43l1.112-18.638-6.964-.534z"/><path fill-rule="nonzero" fill="#FCD9CB" d="M37.19 77.272l1.247 1.456s.206.728.884 0l2.598-2.334s.623-.833 1.869 0l.973.517s.851.517-.712.361c0 0-1.323-.439-1.79.156L39.215 81.4a.852.852 0 0 1-1.274 0l-2.08-2.7 1.329-1.428zM27.206 77.978l-1.112 1.272s-.412.411-.78-.161l-1.818-2.222a.807.807 0 0 0-.884-.445l-2.025.134s-.757.283.623.555c.644.023 1.25.316 1.669.806l2.364 3.45s.556.855 1.273.233l2.225-2.722-1.535-.9z"/><ellipse ry="2.65" rx="2.186" cy="70.889" cx="31.3" fill-rule="nonzero" fill="#FCD9CB"/><path fill-rule="nonzero" fill="#FCD9CB" d="M31.3 71.989h1.724v3.544H31.3z"/><path fill-rule="nonzero" fill="#666" d="M28.09 68.372s.78.556 1.875-.31a2.879 2.879 0 0 1 2.96-.44 3.387 3.387 0 0 1 1.334 2.778 2.223 2.223 0 0 1-1.49 2.028c.38-.5.535-1.137.428-1.756a.445.445 0 0 0-.584-.039s.512-1.666-1.596-1.516c0-.006-2.693.81-2.926-.745z"/><path fill-rule="nonzero" fill="url(#l)" d="M30.9 74.522a1.67 1.67 0 0 0 2.48-.194 2.46 2.46 0 0 1 2.899.972l1.401 1.833s-.428 1.667-1.668 1.906l-.74-.661.25 10.194a.956.956 0 0 1-.862.972c-1.452.15-4.389.29-6.547-.6a.967.967 0 0 1-.595-1l1.006-8.71-1.869-1.323 1.67-2.611a1.993 1.993 0 0 1 2.575-.778z"/><path fill-rule="nonzero" fill="url(#m)" d="M65.037 5.456a.322.322 0 0 1-.206-.4l.695-2.162a.323.323 0 0 1 .362-.266.328.328 0 0 1 .206.405l-.69 2.156a.323.323 0 0 1-.367.267z"/><ellipse ry="1.083" rx="1.085" cy="2.161" cx="66.049" fill-rule="nonzero" fill="url(#n)"/><ellipse ry="13.662" rx="10.573" cy="14.816" cx="16.982" transform="rotate(-69.578 42.657 -19.58)" fill-rule="nonzero" fill="url(#o)" stroke-width="1" opacity=".8"/><ellipse ry="13.315" rx="10.307" cy="14.765" cx="62.03" transform="rotate(-69.72 62.03 14.765)" fill-rule="nonzero" fill="url(#p)"/><path opacity=".1" fill-rule="nonzero" fill="url(#q)" d="M51.186 12.072c1.975-5.339 9.173-7.6 16.07-5.055a16.312 16.312 0 0 1 5.746 3.577 15.702 15.702 0 0 0-7.326-5.41c-6.903-2.545-14.095-.284-16.07 5.055-1.33 3.583.04 7.644 3.165 10.694-1.969-2.75-2.658-5.972-1.585-8.86z"/><path opacity=".1" fill-rule="nonzero" fill="#696969" d="M75.105 16.411a7.98 7.98 0 0 1-.462 2c-1.975 5.333-9.167 7.6-16.064 5.05-5.652-2.078-9.35-6.739-9.418-11.283-.495 4.844 3.338 10.039 9.379 12.272 6.897 2.55 14.09.283 16.064-5.05a8.08 8.08 0 0 0 .5-2.989z"/><path transform="rotate(-69.72 49.034 -20.19)" fill-rule="nonzero" fill="url(#r)" d="M8.094-4.967h1.817l.008 18.159-1.817-.001z" stroke-width="1" opacity=".8"/><path fill-rule="nonzero" fill="#DEDEDE" d="M49.228 23.207l.63-1.705 17.036 6.288-.631 1.704z"/><ellipse ry="27.541" rx="7.19" cy="16.757" cx="28.771" transform="rotate(-69.72 46.22 -4.89)" fill-rule="nonzero" fill="url(#s)" stroke-width="1" opacity=".8"/><path fill-rule="nonzero" fill="#FFF" d="M62.912 12.539c-13.8-5.095-26.066-6.306-27.395-2.7l49.962 18.444c1.335-3.605-8.772-10.655-22.567-15.744zM58.084 25.578c13.8 5.094 26.066 6.305 27.395 2.705L35.517 9.84c-1.335 3.6 8.772 10.65 22.567 15.739z"/><path opacity=".05" fill-rule="nonzero" fill="#040404" d="M58.084 25.578c13.8 5.094 26.066 6.305 27.395 2.705L35.517 9.84c-1.335 3.6 8.772 10.65 22.567 15.739z"/><path opacity=".05" fill-rule="nonzero" fill="#040404" d="M48.477 14.776l.148-.402a1.604 1.604 0 0 1 2.057-.946l20.848 7.694a1.598 1.598 0 0 1 .945 2.054l-.148.402a1.604 1.604 0 0 1-2.056.947L49.423 16.83a1.598 1.598 0 0 1-.946-2.055z"/></g></g></svg>
